<?xml version="1.0" encoding="utf-8"?>
<!-- Generator: Adobe Illustrator 24.0.1, SVG Export Plug-In . SVG Version: 6.00 Build 0)  -->
<svg version="1.1" id="Capa_1" xmlns="http://www.w3.org/2000/svg" xmlns:xlink="http://www.w3.org/1999/xlink" x="0px" y="0px"
	 viewBox="0 0 496 496" style="enable-background:new 0 0 496 496;" xml:space="preserve">
<style type="text/css">
	.st0{fill:#FFFFFF;stroke:#FFFFFF;stroke-width:11;stroke-miterlimit:10;}
</style>
<g>
	<g>
		<path class="st0" d="M248,16C119.9,16,16,119.9,16,248s103.9,232,232,232s232-103.9,232-232C479.9,119.9,376.1,16.1,248,16z
			 M248,465c-119.9,0-217-97.2-217-217S128.1,31,248,31s217,97.2,217,217C464.9,367.8,367.8,464.9,248,465z"/>
		<path class="st0" d="M353.8,142.2c-2.9-2.9-7.7-2.9-10.6,0L248,237.4l-95.3-95.3c-2.9-3-7.6-3.1-10.6-0.2c-3,2.9-3.1,7.6-0.2,10.6
			c0.1,0.1,0.1,0.1,0.2,0.2l95.3,95.3l-95.3,95.3c-3,2.9-3.1,7.6-0.2,10.6c2.9,3,7.6,3.1,10.6,0.2c0.1-0.1,0.1-0.1,0.2-0.2
			l95.3-95.3l95.3,95.3c3,2.9,7.7,2.8,10.6-0.2c2.8-2.9,2.8-7.5,0-10.4L258.6,248l95.3-95.3C356.8,149.8,356.8,145.1,353.8,142.2z"
			/>
	</g>
</g>
</svg>
