<?xml version="1.0" encoding="utf-8"?>
<!-- Generator: Adobe Illustrator 24.0.1, SVG Export Plug-In . SVG Version: 6.00 Build 0)  -->
<svg version="1.1" id="Capa_1" xmlns="http://www.w3.org/2000/svg" xmlns:xlink="http://www.w3.org/1999/xlink" x="0px" y="0px"
	 viewBox="0 0 143.3 23.7" style="enable-background:new 0 0 143.3 23.7;" xml:space="preserve">
<style type="text/css">
	.st0{fill-rule:evenodd;clip-rule:evenodd;fill:#FFFFFF;}
	.st1{fill:#FFFFFF;}
</style>
<g>
	<g>
		<g id="logo_con_casco_1_">
			<g id="logo_1_">
				<g>
					<path class="st0" d="M22.7,23.2L20.5,1.9h-7.2c0,0-0.7,3.3-1.1,5.4c-0.4,2.3-0.9,6-0.9,6s-0.4-3.7-0.8-6c-0.3-2.1-1-5.4-1-5.4
						H2.5L0,23.2h6.2c0,0,0.3-4,0.4-6.7C6.7,14,6.7,9.9,6.7,9.9s0.6,4.2,1,6.8c0.5,2.6,1.2,6.6,1.2,6.6h4.7c0,0,0.8-4.5,1.4-7.2
						c0.4-2.4,1-6.2,1-6.2s0.1,3.8,0.2,6.1c0.1,2.8,0.5,7.3,0.5,7.3H22.7z"/>
					<polygon class="st0" points="35.3,7 35.3,1.9 24.7,1.9 24.7,23.2 35.3,23.2 35.3,18.1 30.3,18.1 30.3,14.9 34.8,14.9 34.8,9.9 
						30.3,9.9 30.3,7 					"/>
					<polygon class="st0" points="49.7,7 49.7,1.9 37.4,1.9 37.4,7 40.6,7 40.6,23.2 46.4,23.2 46.4,7 					"/>
					<path class="st0" d="M101,13v-2.1h-8v4.5h2.1V16c0,1.2-1,2.5-2,2.5c-2.5-0.2-2.2-4.5-2.2-6.1c0-2.2,0.2-5.8,2.4-5.8
						c0.7,0,1.6,0.8,1.8,2.1l5.5-2.1l-0.2-0.4c-1.6-3.5-4.2-4.9-7.1-4.9c-6,0-8.3,5.9-8.2,11.3c0.1,5.3,2,10.6,8.3,10.9
						C99.1,23.8,101,18.1,101,13z"/>
					<path class="st0" d="M129.9,16.4c0.1-5.2-5.5-6.3-5.4-8.4c0-0.6,0.5-1.3,1.5-1.3c1.1,0,2.1,0.7,2.5,1.3l0.8,0.9V2.5l-0.7-0.3
						c-0.2-0.1-2.1-0.7-3.5-0.8c-3.8-0.1-6.2,3.3-6.3,7.1c-0.2,4.9,5.4,6.4,5.4,8.2c0,0.6,0.1,1.7-1.7,1.8c-0.3,0-2,0-3.2-1.7
						l-0.5-0.7v6.6l0.8,0.3c0.4,0.2,2.1,0.6,3.5,0.6C127.7,23.5,129.8,20.2,129.9,16.4z"/>
					<path class="st0" d="M67.1,23.2l-4.2-8.9l0.6-0.3c2-1,2.7-3.1,2.7-5.1c0.1-4-1.6-7-8.5-7H52v21.4h5.8v-8.7c0,0,1.2,3.5,2,5.7
						c0.5,1.2,1.2,3.1,1.2,3.1H67.1z M60.5,8.9c0,1.3-0.8,2.8-2.1,2.8h-0.6V6.4h0.5C59.4,6.4,60.5,7.3,60.5,8.9z"/>
					<path class="st0" d="M83.4,12.9c0.1-5.6-2.7-11.6-8.7-11.4c-5.2,0.2-7.7,5.8-7.7,11c0,5.4,2.3,11,8.1,11.2
						C80.7,23.7,83.3,18.1,83.4,12.9z M77.4,12.7c0,2.4-0.5,5.9-2.2,5.7c-1.9-0.1-2.3-3.5-2.3-5.9c0-2.4,0.7-5.6,2.3-5.7
						C77,6.8,77.4,10.3,77.4,12.7z"/>
					<path class="st0" d="M117.6,23.2l-4.7-21.4h-7l-5.1,21.4h5.9l0.5-2.7h3.9l0.4,2.7H117.6z M110.5,16H108l1.4-9L110.5,16z"/>
				</g>
				<g>
					<g>
						<g>
							<path class="st0" d="M138.7,4.9c0.4,0.7,0.5,0.8,0.8,1.6l0.1,0c0.2,0,0.4,0,0.5,0c0.2,0,0.4,0,0.5,0l0-0.1
								c-0.2-0.3-0.3-0.4-0.7-1c-0.2-0.3-0.3-0.5-0.4-0.7c0.3-0.1,0.8-0.4,0.8-1.1c0-0.3-0.1-0.8-0.5-1.1c-0.3-0.1-0.6-0.1-1.3-0.1
								l-0.4,0h-0.7l-0.1,0c0,0.6,0.1,1.2,0.1,2.8c0,0.5,0,0.8,0,1.3l0,0c0.4,0,0.5,0,1,0l0,0c0-0.7,0-0.8-0.1-1.5L138.7,4.9z
								 M138.4,3.1c0.1,0,0.2,0,0.2,0c0.2,0,0.7,0,0.7,0.5c0,0.2,0,0.4-0.2,0.5c-0.2,0.1-0.4,0.1-0.7,0.1V3.1z"/>
							<path class="st1" d="M138.9,8.7c-2.4,0-4.4-2-4.4-4.4c0-2.4,2-4.3,4.4-4.3c2.4,0,4.4,2,4.4,4.3
								C143.3,6.8,141.3,8.7,138.9,8.7z M138.9,0.6c-2.1,0-3.8,1.7-3.8,3.8c0,2.1,1.7,3.8,3.8,3.8c2.1,0,3.8-1.7,3.8-3.8
								C142.7,2.3,141,0.6,138.9,0.6z"/>
						</g>
					</g>
				</g>
			</g>
		</g>
	</g>
</g>
</svg>
